<svg width="263" height="99" viewBox="0 0 263 99" fill="none" xmlns="http://www.w3.org/2000/svg">
<path d="M214.592 84.3973C216.572 86.4039 216.591 89.663 214.356 91.3808C209.908 94.7992 204.736 97.1671 199.218 98.2794C192.041 99.7264 184.602 98.9838 177.841 96.1455C171.08 93.3072 165.301 88.5007 161.236 82.3339C157.17 76.167 155 68.9168 155 61.5C155 54.0832 157.17 46.833 161.236 40.6661C165.301 34.4993 171.08 29.6928 177.841 26.8545C184.602 24.0162 192.041 23.2736 199.218 24.7206C204.736 25.8329 209.908 28.2008 214.356 31.6192C216.591 33.3369 216.572 36.5961 214.592 38.6027C212.574 40.6478 209.294 40.5976 206.919 38.9813C203.998 36.9937 200.705 35.5994 197.221 34.8971C192.03 33.8505 186.649 34.3877 181.758 36.4406C176.868 38.4936 172.689 41.9702 169.748 46.4307C166.807 50.8912 165.238 56.1354 165.238 61.5C165.238 66.8646 166.807 72.1088 169.748 76.5693C172.689 81.0298 176.868 84.5064 181.758 86.5594C186.649 88.6123 192.03 89.1495 197.221 88.1029C200.705 87.4006 203.998 86.0063 206.919 84.0187C209.294 82.4024 212.574 82.3522 214.592 84.3973Z" fill="black"/>
<path d="M46.8174 59.621C45.4476 58.2787 45.4367 56.0513 46.9809 54.914C49.9668 52.715 53.4303 51.1905 57.1227 50.4708C61.9723 49.5254 66.9989 50.0106 71.5671 51.865C76.1352 53.7193 80.0397 56.8595 82.7867 60.8885C85.5338 64.9175 87 69.6544 87 74.5C87 79.3456 85.5338 84.0825 82.7867 88.1115C80.0397 92.1405 76.1352 95.2807 71.5671 97.135C66.9989 98.9894 61.9723 99.4746 57.1227 98.5292C53.4303 97.8095 49.9668 96.285 46.9809 94.086C45.4367 92.9487 45.4476 90.7213 46.8174 89.379C48.1485 88.0744 50.2647 88.1071 51.8145 89.1424C53.814 90.4781 56.0765 91.4135 58.4722 91.8805C61.9799 92.5643 65.6158 92.2134 68.92 90.8721C72.2241 89.5308 75.0483 87.2595 77.0352 84.3453C79.0222 81.4311 80.0827 78.0049 80.0827 74.5C80.0827 70.9951 79.0222 67.5689 77.0352 64.6547C75.0483 61.7405 72.2241 59.4692 68.92 58.1279C65.6158 56.7866 61.9799 56.4357 58.4722 57.1195C56.0765 57.5865 53.814 58.5219 51.8145 59.8576C50.2647 60.8929 48.1485 60.9256 46.8174 59.621Z" fill="black"/>
<path d="M60.3481 72.3481C62.3741 74.3741 62.3924 77.6928 60.1063 79.42C55.6099 82.8173 50.3866 85.1714 44.8159 86.2794C37.5416 87.7264 30.0016 86.9838 23.1494 84.1455C16.2971 81.3072 10.4404 76.5007 6.31989 70.3339C2.19934 64.167 4.56792e-07 56.9168 0 49.5C-4.56792e-07 42.0832 2.19934 34.833 6.31989 28.6661C10.4404 22.4993 16.2971 17.6928 23.1494 14.8545C30.0016 12.0162 37.5416 11.2736 44.8159 12.7206C50.3866 13.8286 55.6099 16.1827 60.1063 19.58C62.3924 21.3072 62.3741 24.6259 60.348 26.6519C58.322 28.678 55.0579 28.6279 52.6836 27.024C49.7078 25.0137 46.3476 23.6044 42.7916 22.8971C37.5301 21.8505 32.0763 22.3877 27.1201 24.4406C22.1638 26.4936 17.9276 29.9702 14.9472 34.4307C11.9667 38.8912 10.3759 44.1354 10.3759 49.5C10.3759 54.8646 11.9667 60.1088 14.9472 64.5693C17.9276 69.0298 22.1638 72.5064 27.1201 74.5594C32.0763 76.6123 37.5301 77.1495 42.7916 76.1029C46.3476 75.3955 49.7078 73.9863 52.6836 71.976C55.0579 70.3721 58.322 70.322 60.3481 72.3481Z" fill="black"/>
<path d="M142.64 57.033C144.65 58.988 144.665 62.248 142.4 63.9005C136.412 68.2683 129.149 70.7657 121.584 70.9843C114.013 71.2031 106.605 69.1261 100.358 65.1055C98.0044 63.5907 97.8265 60.3417 99.7134 58.2743C101.528 56.2861 104.578 56.1517 106.902 57.5099C111.208 60.0263 116.195 61.3132 121.284 61.1661C126.368 61.0192 131.263 59.4495 135.405 56.6939C137.65 55.2006 140.707 55.1534 142.64 57.033Z" fill="black"/>
<path d="M99.1702 84.4057C97.1958 86.3872 93.9559 86.411 92.2656 84.1823C88.9409 79.7986 86.6334 74.7034 85.5416 69.2668C84.1161 62.1677 84.8276 54.8052 87.5864 48.1105C90.3451 41.4158 95.0271 35.6895 101.04 31.6557C107.054 27.6219 114.128 25.4619 121.369 25.4486C128.61 25.4354 135.692 27.5697 141.72 31.5815C147.747 35.5933 152.45 41.3025 155.233 47.9871C158.017 54.6717 158.755 62.0315 157.355 69.1358C156.284 74.5763 153.995 79.6799 150.686 84.0756C149.004 86.3106 145.764 86.2986 143.782 84.3243C141.801 82.3499 141.844 79.1631 143.405 76.8424C145.363 73.9335 146.732 70.6505 147.417 67.1777C148.429 62.0391 147.895 56.7157 145.882 51.8807C143.869 47.0456 140.467 42.9161 136.107 40.0144C131.747 37.1126 126.625 35.5689 121.387 35.5784C116.15 35.588 111.033 37.1504 106.683 40.068C102.334 42.9857 98.9476 47.1276 96.9521 51.9699C94.9567 56.8123 94.442 62.1376 95.4732 67.2725C96.17 70.7428 97.5518 74.0208 99.5197 76.9224C101.09 79.2375 101.145 82.4241 99.1702 84.4057Z" fill="black"/>
<path d="M263 61.5C263 82.2107 247.106 99 227.5 99C207.894 99 192 82.2107 192 61.5C192 40.7893 207.894 24 227.5 24C247.106 24 263 40.7893 263 61.5ZM201.823 61.5C201.823 76.4802 213.319 88.6241 227.5 88.6241C241.681 88.6241 253.177 76.4802 253.177 61.5C253.177 46.5198 241.681 34.3759 227.5 34.3759C213.319 34.3759 201.823 46.5198 201.823 61.5Z" fill="black"/>
<path d="M214.592 84.3973C216.572 86.4039 216.591 89.663 214.356 91.3808C209.908 94.7992 204.736 97.1671 199.218 98.2794C192.041 99.7264 184.602 98.9838 177.841 96.1455C171.08 93.3072 165.301 88.5007 161.236 82.3339C157.17 76.167 155 68.9168 155 61.5C155 54.0832 157.17 46.833 161.236 40.6661C165.301 34.4993 171.08 29.6928 177.841 26.8545C184.602 24.0162 192.041 23.2736 199.218 24.7206C204.736 25.8329 209.908 28.2008 214.356 31.6192C216.591 33.3369 216.572 36.5961 214.592 38.6027C212.574 40.6478 209.294 40.5976 206.919 38.9813C203.998 36.9937 200.705 35.5994 197.221 34.8971C192.03 33.8505 186.649 34.3877 181.758 36.4406C176.868 38.4936 172.689 41.9702 169.748 46.4307C166.807 50.8912 165.238 56.1354 165.238 61.5C165.238 66.8646 166.807 72.1088 169.748 76.5693C172.689 81.0298 176.868 84.5064 181.758 86.5594C186.649 88.6123 192.03 89.1495 197.221 88.1029C200.705 87.4006 203.998 86.0063 206.919 84.0187C209.294 82.4024 212.574 82.3522 214.592 84.3973Z" fill="black"/>
<path d="M46.8174 59.621C45.4476 58.2787 45.4367 56.0513 46.9809 54.914C49.9668 52.715 53.4303 51.1905 57.1227 50.4708C61.9723 49.5254 66.9989 50.0106 71.5671 51.865C76.1352 53.7193 80.0397 56.8595 82.7867 60.8885C85.5338 64.9175 87 69.6544 87 74.5C87 79.3456 85.5338 84.0825 82.7867 88.1115C80.0397 92.1405 76.1352 95.2807 71.5671 97.135C66.9989 98.9894 61.9723 99.4746 57.1227 98.5292C53.4303 97.8095 49.9668 96.285 46.9809 94.086C45.4367 92.9487 45.4476 90.7213 46.8174 89.379C48.1485 88.0744 50.2647 88.1071 51.8145 89.1424C53.814 90.4781 56.0765 91.4135 58.4722 91.8805C61.9799 92.5643 65.6158 92.2134 68.92 90.8721C72.2241 89.5308 75.0483 87.2595 77.0352 84.3453C79.0222 81.4311 80.0827 78.0049 80.0827 74.5C80.0827 70.9951 79.0222 67.5689 77.0352 64.6547C75.0483 61.7405 72.2241 59.4692 68.92 58.1279C65.6158 56.7866 61.9799 56.4357 58.4722 57.1195C56.0765 57.5865 53.814 58.5219 51.8145 59.8576C50.2647 60.8929 48.1485 60.9256 46.8174 59.621Z" fill="black"/>
<path d="M60.3481 72.3481C62.3741 74.3741 62.3924 77.6928 60.1063 79.42C55.6099 82.8173 50.3866 85.1714 44.8159 86.2794C37.5416 87.7264 30.0016 86.9838 23.1494 84.1455C16.2971 81.3072 10.4404 76.5007 6.31989 70.3339C2.19934 64.167 4.56792e-07 56.9168 0 49.5C-4.56792e-07 42.0832 2.19934 34.833 6.31989 28.6661C10.4404 22.4993 16.2971 17.6928 23.1494 14.8545C30.0016 12.0162 37.5416 11.2736 44.8159 12.7206C50.3866 13.8286 55.6099 16.1827 60.1063 19.58C62.3924 21.3072 62.3741 24.6259 60.348 26.6519C58.322 28.678 55.0579 28.6279 52.6836 27.024C49.7078 25.0137 46.3476 23.6044 42.7916 22.8971C37.5301 21.8505 32.0763 22.3877 27.1201 24.4406C22.1638 26.4936 17.9276 29.9702 14.9472 34.4307C11.9667 38.8912 10.3759 44.1354 10.3759 49.5C10.3759 54.8646 11.9667 60.1088 14.9472 64.5693C17.9276 69.0298 22.1638 72.5064 27.1201 74.5594C32.0763 76.6123 37.5301 77.1495 42.7916 76.1029C46.3476 75.3955 49.7078 73.9863 52.6836 71.976C55.0579 70.3721 58.322 70.322 60.3481 72.3481Z" fill="black"/>
<path d="M142.64 57.033C144.65 58.988 144.665 62.248 142.4 63.9005C136.412 68.2683 129.149 70.7657 121.584 70.9843C114.013 71.2031 106.605 69.1261 100.358 65.1055C98.0044 63.5907 97.8265 60.3417 99.7134 58.2743C101.528 56.2861 104.578 56.1517 106.902 57.5099C111.208 60.0263 116.195 61.3132 121.284 61.1661C126.368 61.0192 131.263 59.4495 135.405 56.6939C137.65 55.2006 140.707 55.1534 142.64 57.033Z" fill="black"/>
<path d="M99.1702 84.4057C97.1958 86.3872 93.9559 86.411 92.2656 84.1823C88.9409 79.7986 86.6334 74.7034 85.5416 69.2668C84.1161 62.1677 84.8276 54.8052 87.5864 48.1105C90.3451 41.4158 95.0271 35.6895 101.04 31.6557C107.054 27.6219 114.128 25.4619 121.369 25.4486C128.61 25.4354 135.692 27.5697 141.72 31.5815C147.747 35.5933 152.45 41.3025 155.233 47.9871C158.017 54.6717 158.755 62.0315 157.355 69.1358C156.284 74.5763 153.995 79.6799 150.686 84.0756C149.004 86.3106 145.764 86.2986 143.782 84.3243C141.801 82.3499 141.844 79.1631 143.405 76.8424C145.363 73.9335 146.732 70.6505 147.417 67.1777C148.429 62.0391 147.895 56.7157 145.882 51.8807C143.869 47.0456 140.467 42.9161 136.107 40.0144C131.747 37.1126 126.625 35.5689 121.387 35.5784C116.15 35.588 111.033 37.1504 106.683 40.068C102.334 42.9857 98.9476 47.1276 96.9521 51.9699C94.9567 56.8123 94.442 62.1376 95.4732 67.2725C96.17 70.7428 97.5518 74.0208 99.5197 76.9224C101.09 79.2375 101.145 82.4241 99.1702 84.4057Z" fill="black"/>
<path d="M263 61.5C263 82.2107 247.106 99 227.5 99C207.894 99 192 82.2107 192 61.5C192 40.7893 207.894 24 227.5 24C247.106 24 263 40.7893 263 61.5ZM201.823 61.5C201.823 76.4802 213.319 88.6241 227.5 88.6241C241.681 88.6241 253.177 76.4802 253.177 61.5C253.177 46.5198 241.681 34.3759 227.5 34.3759C213.319 34.3759 201.823 46.5198 201.823 61.5Z" fill="black"/>
</svg>
