<svg width="433" height="165" viewBox="0 0 433 165" fill="none" xmlns="http://www.w3.org/2000/svg">
<path d="M354.76 140.721C357.921 143.993 357.955 149.238 354.384 152.057C347.142 157.774 338.707 161.733 329.705 163.587C318.067 165.983 306.003 164.753 295.039 160.052C284.075 155.351 274.705 147.389 268.112 137.175C261.519 126.96 258 114.951 258 102.666C258 90.3808 261.519 78.3716 268.112 68.1569C274.705 57.9423 284.075 49.9809 295.039 45.2796C306.003 40.5783 318.067 39.3483 329.705 41.745C338.707 43.5986 347.142 47.5574 354.384 53.2751C357.955 56.094 357.921 61.3383 354.76 64.6103C351.441 68.0466 345.966 67.9634 342.031 65.2544C337.335 62.0217 332.052 59.7513 326.467 58.6013C318.048 56.8677 309.322 57.7574 301.392 61.1579C293.462 64.5584 286.684 70.3169 281.915 77.7053C277.147 85.0936 274.602 93.7799 274.602 102.666C274.602 111.552 277.147 120.238 281.915 127.626C286.684 135.015 293.462 140.773 301.392 144.174C309.322 147.574 318.048 148.464 326.467 146.73C332.052 145.58 337.335 143.31 342.031 140.077C345.966 137.368 351.441 137.285 354.76 140.721Z" fill="white"/>
<path d="M83.5257 98.5855C81.4055 96.4087 81.3835 92.9017 83.7781 91.031C88.5986 87.2651 94.2094 84.6572 100.196 83.4346C107.956 81.85 115.998 82.6633 123.307 85.7716C130.616 88.8798 136.864 94.1436 141.259 100.897C145.654 107.651 148 115.59 148 123.713C148 131.835 145.654 139.775 141.259 146.529C136.864 153.282 130.616 158.546 123.307 161.654C115.998 164.762 107.956 165.576 100.196 163.991C94.2094 162.768 88.5987 160.161 83.7781 156.395C81.3835 154.524 81.4055 151.017 83.5257 148.84C85.7264 146.581 89.3355 146.636 91.9372 148.419C95.0784 150.571 98.6155 152.083 102.356 152.846C107.968 153.993 113.785 153.404 119.072 151.156C124.359 148.908 128.877 145.101 132.056 140.216C135.235 135.331 136.932 129.588 136.932 123.713C136.932 117.838 135.235 112.095 132.056 107.21C128.877 102.325 124.359 98.5179 119.072 96.2696C113.785 94.0214 107.968 93.4331 102.356 94.5793C98.6155 95.3431 95.0784 96.8542 91.9372 99.0069C89.3355 100.79 85.7264 100.845 83.5257 98.5855Z" fill="white"/>
<path d="M100.26 124.774C103.031 128.451 102.371 133.73 98.3931 136.049C90.4437 140.682 81.5412 143.445 72.3461 144.085C60.4008 144.915 48.4982 142.124 38.1435 136.063C27.7887 130.003 19.4468 120.946 14.1728 110.037C8.89873 99.1285 6.92934 86.8582 8.51367 74.7782C10.098 62.6981 15.1649 51.3507 23.0736 42.171C30.9823 32.9912 41.3776 26.3914 52.9449 23.2061C64.5123 20.0208 76.7322 20.3931 88.0593 24.276C96.7785 27.2648 104.667 32.2305 111.153 38.7565C114.399 42.0226 113.675 47.2936 110.049 50.1314C106.329 53.0425 100.988 52.2588 97.4653 49.1119C93.1617 45.2675 88.1317 42.3063 82.6474 40.4263C74.4544 37.6179 65.6156 37.3486 57.2489 39.6525C48.8821 41.9564 41.3631 46.7301 35.6427 53.3699C29.9223 60.0097 26.2573 68.2174 25.1114 76.955C23.9654 85.6926 25.3899 94.5677 29.2047 102.458C33.0194 110.348 39.0532 116.9 46.5429 121.283C54.0325 125.667 62.6418 127.686 71.2819 127.085C77.0655 126.683 82.6891 125.119 87.8384 122.514C92.0535 120.382 97.416 121.002 100.26 124.774Z" fill="white"/>
<path d="M238.656 94.5925C241.908 97.791 241.934 103.086 238.267 105.799C228.493 113.03 216.628 117.166 204.267 117.527C191.901 117.888 179.801 114.45 169.605 107.796C165.789 105.306 165.501 100.024 168.554 96.642C171.537 93.3374 176.59 93.1148 180.428 95.3699C187.426 99.4816 195.52 101.583 203.778 101.342C212.032 101.101 219.98 98.533 226.715 94.0248C230.417 91.5464 235.479 91.4683 238.656 94.5925Z" fill="white"/>
<path d="M168.427 140.406C165.178 143.754 159.755 143.79 156.996 140.028C151.687 132.792 148.001 124.397 146.249 115.443C143.945 103.664 145.095 91.4474 149.554 80.3389C154.013 69.2305 161.579 59.7289 171.298 53.0357C181.016 46.3425 192.449 42.7583 204.152 42.7364C215.854 42.7144 227.3 46.2557 237.042 52.9125C246.784 59.5692 254.385 69.0424 258.883 80.1341C263.381 91.2258 264.574 103.438 262.312 115.226C260.593 124.186 256.936 132.595 251.653 139.851C248.907 143.623 243.484 143.608 240.223 140.272C237.081 137.058 237.15 131.959 239.635 128.213C242.868 123.337 245.128 117.819 246.249 111.977C247.886 103.45 247.022 94.6174 243.769 86.5947C240.515 78.572 235.018 71.7199 227.971 66.905C220.925 62.0902 212.646 59.5287 204.181 59.5446C195.717 59.5604 187.447 62.1529 180.418 66.9941C173.389 71.8354 167.915 78.708 164.691 86.7428C161.466 94.7776 160.634 103.614 162.3 112.134C163.442 117.972 165.722 123.482 168.972 128.345C171.47 132.082 171.558 137.18 168.427 140.406Z" fill="white"/>
<path d="M433 102.666C433 136.971 407.256 164.78 375.5 164.78C343.744 164.78 318 136.971 318 102.666C318 68.361 343.744 40.5515 375.5 40.5515C407.256 40.5515 433 68.361 433 102.666ZM333.91 102.666C333.91 127.479 352.53 147.594 375.5 147.594C398.47 147.594 417.09 127.479 417.09 102.666C417.09 77.8529 398.47 57.738 375.5 57.738C352.53 57.738 333.91 77.8529 333.91 102.666Z" fill="white"/>
<path d="M354.76 140.721C357.921 143.993 357.955 149.238 354.384 152.057C347.142 157.774 338.707 161.733 329.705 163.587C318.067 165.983 306.003 164.753 295.039 160.052C284.075 155.351 274.705 147.389 268.112 137.175C261.519 126.96 258 114.951 258 102.666C258 90.3808 261.519 78.3716 268.112 68.1569C274.705 57.9423 284.075 49.9809 295.039 45.2796C306.003 40.5783 318.067 39.3483 329.705 41.745C338.707 43.5986 347.142 47.5574 354.384 53.2751C357.955 56.094 357.921 61.3383 354.76 64.6103C351.441 68.0466 345.966 67.9634 342.031 65.2544C337.335 62.0217 332.052 59.7513 326.467 58.6013C318.048 56.8677 309.322 57.7574 301.392 61.1579C293.462 64.5584 286.684 70.3169 281.915 77.7053C277.147 85.0936 274.602 93.7799 274.602 102.666C274.602 111.552 277.147 120.238 281.915 127.626C286.684 135.015 293.462 140.773 301.392 144.174C309.322 147.574 318.048 148.464 326.467 146.73C332.052 145.58 337.335 143.31 342.031 140.077C345.966 137.368 351.441 137.285 354.76 140.721Z" fill="white"/>
<path d="M83.5257 98.5855C81.4055 96.4087 81.3835 92.9017 83.7781 91.031C88.5986 87.2651 94.2094 84.6572 100.196 83.4346C107.956 81.85 115.998 82.6633 123.307 85.7716C130.616 88.8798 136.864 94.1436 141.259 100.897C145.654 107.651 148 115.59 148 123.713C148 131.835 145.654 139.775 141.259 146.529C136.864 153.282 130.616 158.546 123.307 161.654C115.998 164.762 107.956 165.576 100.196 163.991C94.2094 162.768 88.5987 160.161 83.7781 156.395C81.3835 154.524 81.4055 151.017 83.5257 148.84C85.7264 146.581 89.3355 146.636 91.9372 148.419C95.0784 150.571 98.6155 152.083 102.356 152.846C107.968 153.993 113.785 153.404 119.072 151.156C124.359 148.908 128.877 145.101 132.056 140.216C135.235 135.331 136.932 129.588 136.932 123.713C136.932 117.838 135.235 112.095 132.056 107.21C128.877 102.325 124.359 98.5179 119.072 96.2696C113.785 94.0214 107.968 93.4331 102.356 94.5793C98.6155 95.3431 95.0784 96.8542 91.9372 99.0069C89.3355 100.79 85.7264 100.845 83.5257 98.5855Z" fill="white"/>
<path d="M100.26 124.774C103.031 128.451 102.371 133.73 98.3931 136.049C90.4437 140.682 81.5412 143.445 72.3461 144.085C60.4008 144.915 48.4982 142.124 38.1435 136.063C27.7887 130.003 19.4468 120.946 14.1728 110.037C8.89873 99.1285 6.92934 86.8582 8.51367 74.7782C10.098 62.6981 15.1649 51.3507 23.0736 42.171C30.9823 32.9912 41.3776 26.3914 52.9449 23.2061C64.5123 20.0208 76.7322 20.3931 88.0593 24.276C96.7785 27.2648 104.667 32.2305 111.153 38.7565C114.399 42.0226 113.675 47.2936 110.049 50.1314C106.329 53.0425 100.988 52.2588 97.4653 49.1119C93.1617 45.2675 88.1317 42.3063 82.6474 40.4263C74.4544 37.6179 65.6156 37.3486 57.2489 39.6525C48.8821 41.9564 41.3631 46.7301 35.6427 53.3699C29.9223 60.0097 26.2573 68.2174 25.1114 76.955C23.9654 85.6926 25.3899 94.5677 29.2047 102.458C33.0194 110.348 39.0532 116.9 46.5429 121.283C54.0325 125.667 62.6418 127.686 71.2819 127.085C77.0655 126.683 82.6891 125.119 87.8384 122.514C92.0535 120.382 97.416 121.002 100.26 124.774Z" fill="white"/>
<path d="M238.656 94.5925C241.908 97.791 241.934 103.086 238.267 105.799C228.493 113.03 216.628 117.166 204.267 117.527C191.901 117.888 179.801 114.45 169.605 107.796C165.789 105.306 165.501 100.024 168.554 96.642C171.537 93.3374 176.59 93.1148 180.428 95.3699C187.426 99.4816 195.52 101.583 203.778 101.342C212.032 101.101 219.98 98.533 226.715 94.0248C230.417 91.5464 235.479 91.4683 238.656 94.5925Z" fill="white"/>
<path d="M168.427 140.406C165.178 143.754 159.755 143.79 156.996 140.028C151.687 132.792 148.001 124.397 146.249 115.443C143.945 103.664 145.095 91.4474 149.554 80.3389C154.013 69.2305 161.579 59.7289 171.298 53.0357C181.016 46.3425 192.449 42.7583 204.152 42.7364C215.854 42.7144 227.3 46.2557 237.042 52.9125C246.784 59.5692 254.385 69.0424 258.883 80.1341C263.381 91.2258 264.574 103.438 262.312 115.226C260.593 124.186 256.936 132.595 251.653 139.851C248.907 143.623 243.484 143.608 240.223 140.272C237.081 137.058 237.15 131.959 239.635 128.213C242.868 123.337 245.128 117.819 246.249 111.977C247.886 103.45 247.022 94.6174 243.769 86.5947C240.515 78.572 235.018 71.7199 227.971 66.905C220.925 62.0902 212.646 59.5287 204.181 59.5446C195.717 59.5604 187.447 62.1529 180.418 66.9941C173.389 71.8354 167.915 78.708 164.691 86.7428C161.466 94.7776 160.634 103.614 162.3 112.134C163.442 117.972 165.722 123.482 168.972 128.345C171.47 132.082 171.558 137.18 168.427 140.406Z" fill="white"/>
<path d="M433 102.666C433 136.971 407.256 164.78 375.5 164.78C343.744 164.78 318 136.971 318 102.666C318 68.361 343.744 40.5515 375.5 40.5515C407.256 40.5515 433 68.361 433 102.666ZM333.91 102.666C333.91 127.479 352.53 147.594 375.5 147.594C398.47 147.594 417.09 127.479 417.09 102.666C417.09 77.8529 398.47 57.738 375.5 57.738C352.53 57.738 333.91 77.8529 333.91 102.666Z" fill="white"/>
</svg>
