<svg width="325" height="106" viewBox="0 0 325 106" fill="none" xmlns="http://www.w3.org/2000/svg">
<path d="M40.0562 28.7112C36.3938 23.87 28.4132 8.23621 31.431 5.95315C34.4489 3.67009 47.3224 15.6023 50.9848 20.4435C54.6472 25.2846 55.1698 31.0599 52.1519 33.343C49.1341 35.626 43.7186 33.5523 40.0562 28.7112Z" fill="#6386E0"/>
<path d="M63.9667 21.2788C66.8531 15.9386 77.7694 2.19301 81.0984 3.9923C84.4275 5.79159 78.9085 22.4544 76.0221 27.7947C73.1358 33.1349 68.0972 36.0055 64.7682 34.2062C61.4392 32.4069 61.0803 26.6191 63.9667 21.2788Z" fill="#6386E0"/>
<path d="M112 72.6359C112 95.9769 80.4756 106 57.0387 106C33.6019 106 0 95.9769 0 72.6359C0 49.295 33.6019 14 57.0387 14C80.4756 14 112 49.295 112 72.6359Z" fill="#63D4E0"/>
<path d="M55.7173 92C49.6901 92 41 88.6407 41 82.3252C41 76.0098 49.6901 84.5603 55.7173 84.5603C61.7444 84.5603 71 76.0098 71 82.3252C71 88.6407 61.7444 92 55.7173 92Z" fill="#6386E0"/>
<path d="M104 62.0622C104 76.1977 80.843 64.3562 56.2201 64.3562C31.5973 64.3562 8 76.1977 8 62.0622C8 47.9268 31.5973 20 56.2201 20C80.843 20 104 47.9268 104 62.0622Z" fill="#63ACE0"/>
<path d="M99 59.7702C99 72.4632 78.014 61.8301 55.6995 61.8301C33.385 61.8301 12 72.4632 12 59.7702C12 47.0771 33.385 22 55.6995 22C78.014 22 99 47.0771 99 59.7702Z" fill="#6386E0"/>
<path d="M35.059 50.0906C32.3735 55.4281 29.1839 63.796 23.5457 60.9592C17.9075 58.1224 18.9609 49.0083 21.6464 43.6708C24.332 38.3333 31.2748 31.555 36.913 34.3918C42.5512 37.2286 37.7446 44.7531 35.059 50.0906Z" fill="#E0D163"/>
<path d="M76.041 50.1148C73.3554 44.7773 68.5367 37.2291 74.1749 34.3921C79.8131 31.5552 86.504 37.8326 89.1897 43.1701C91.8753 48.5076 93.1808 58.1224 87.5426 60.9593C81.9044 63.7963 78.7267 55.4522 76.041 50.1148Z" fill="#E0D163"/>
<path d="M78.9687 48.6441C77.463 45.6516 74.7613 41.4196 77.9224 39.829C81.0835 38.2384 84.8349 41.758 86.3407 44.7505C87.8464 47.743 88.5783 53.1337 85.4172 54.7242C82.2561 56.3148 80.4744 51.6366 78.9687 48.6441Z" fill="#E06563"/>
<path d="M32.1697 48.631C30.6639 51.6235 28.8756 56.3151 25.7145 54.7245C22.5533 53.1339 23.144 48.024 24.6497 45.0315C26.1555 42.039 30.0481 38.2387 33.2092 39.8292C36.3704 41.4198 33.6754 45.6385 32.1697 48.631Z" fill="#E06563"/>
<path d="M85.0697 45.4817C85.919 46.9617 86.3121 49.5727 84.749 50.4698C83.1858 51.3669 81.1797 49.6814 80.3304 48.2015C79.4811 46.7215 78.9582 44.0003 80.5214 43.1032C82.0846 42.2061 84.2203 44.0017 85.0697 45.4817Z" fill="#63D4E0"/>
<path d="M30.8675 48.0698C30.1006 49.5941 28.1383 51.361 26.5284 50.5509C24.9184 49.7408 25.2194 47.138 25.9864 45.6137C26.7533 44.0895 28.736 42.1536 30.346 42.9637C31.956 43.7738 31.6345 46.5455 30.8675 48.0698Z" fill="#63D4E0"/>
<path d="M287.841 80.8413C289.246 82.246 289.259 84.547 287.674 85.7445C284.556 88.1 280.935 89.7321 277.072 90.5004C272.029 91.5036 266.801 90.9887 262.05 89.0209C257.299 87.053 253.239 83.7205 250.382 79.4448C247.525 75.1691 246 70.1423 246 65C246 59.8577 247.525 54.8309 250.382 50.5552C253.239 46.2795 257.299 42.947 262.05 40.9791C266.801 39.0113 272.029 38.4964 277.072 39.4996C280.935 40.2679 284.556 41.9 287.674 44.2555C289.259 45.453 289.246 47.754 287.841 49.1587C286.437 50.5634 284.173 50.5287 282.527 49.4166C280.464 48.0228 278.134 47.0457 275.669 46.5553C272.021 45.8297 268.24 46.2021 264.803 47.6255C261.367 49.0489 258.43 51.4593 256.363 54.5519C254.297 57.6446 253.194 61.2805 253.194 65C253.194 68.7195 254.297 72.3554 256.363 75.4481C258.43 78.5407 261.367 80.9511 264.803 82.3745C268.24 83.7979 272.021 84.1703 275.669 83.4447C278.134 82.9543 280.464 81.9772 282.527 80.5834C284.173 79.4713 286.437 79.4366 287.841 80.8413Z" fill="#0093E0"/>
<path d="M170.789 61.9833C169.863 61.0305 169.853 59.4973 170.9 58.678C173.009 57.026 175.465 55.882 178.086 55.3459C181.481 54.6513 184.999 55.0078 188.197 56.3702C191.395 57.7325 194.128 60.0396 196.051 62.9997C197.974 65.9598 199 69.4399 199 73C199 76.5601 197.974 80.0402 196.051 83.0003C194.128 85.9603 191.395 88.2675 188.197 89.6298C184.999 90.9922 181.481 91.3487 178.086 90.6541C175.465 90.118 173.009 88.974 170.9 87.322C169.853 86.5027 169.863 84.9695 170.789 84.0167C171.753 83.0251 173.336 83.0492 174.477 83.8315C175.85 84.7736 177.396 85.4349 179.031 85.7694C181.486 86.2717 184.031 86.0139 186.344 85.0285C188.657 84.0431 190.634 82.3743 192.025 80.2333C193.416 78.0922 194.158 75.575 194.158 73C194.158 70.425 193.416 67.9078 192.025 65.7667C190.634 63.6257 188.657 61.9569 186.344 60.9715C184.031 59.9861 181.486 59.7283 179.031 60.2306C177.396 60.5651 175.85 61.2264 174.477 62.1685C173.336 62.9508 171.753 62.9749 170.789 61.9833Z" fill="#0093E0"/>
<path d="M179.841 70.8413C181.246 72.246 181.259 74.547 179.674 75.7445C176.556 78.1 172.935 79.7321 169.072 80.5004C164.029 81.5036 158.801 80.9887 154.05 79.0209C149.299 77.053 145.239 73.7205 142.382 69.4448C139.525 65.1691 138 60.1423 138 55C138 49.8577 139.525 44.8309 142.382 40.5552C145.239 36.2795 149.299 32.947 154.05 30.9791C158.801 29.0113 164.029 28.4964 169.072 29.4996C172.935 30.2679 176.556 31.9 179.674 34.2555C181.259 35.453 181.246 37.754 179.841 39.1587C178.437 40.5634 176.173 40.5287 174.527 39.4166C172.464 38.0228 170.134 37.0457 167.669 36.5553C164.021 35.8297 160.24 36.2021 156.803 37.6255C153.367 39.0489 150.43 41.4593 148.363 44.5519C146.297 47.6446 145.194 51.2805 145.194 55C145.194 58.7195 146.297 62.3554 148.363 65.4481C150.43 68.5407 153.367 70.9511 156.803 72.3745C160.24 73.7979 164.021 74.1703 167.669 73.4447C170.134 72.9543 172.464 71.9772 174.527 70.5834C176.173 69.4713 178.437 69.4366 179.841 70.8413Z" fill="#0093E0"/>
<path d="M238.841 61.8413C240.246 63.246 240.259 65.547 238.674 66.7446C234.394 69.9781 229.192 71.8275 223.772 71.9885C218.352 72.1496 213.05 70.6123 208.586 67.6387C206.932 66.5373 206.808 64.2396 208.127 62.754C209.446 61.2683 211.707 61.1687 213.417 62.181C216.46 63.9837 219.974 64.9042 223.559 64.7977C227.143 64.6912 230.596 63.5637 233.527 61.5834C235.173 60.4714 237.437 60.4366 238.841 61.8413Z" fill="#0093E0"/>
<path d="M207.323 80.8549C205.917 82.2654 203.611 82.2824 202.408 80.6958C200.041 77.5754 198.398 73.9484 197.621 70.0783C196.607 65.0248 197.113 59.7839 199.077 55.0183C201.041 50.2527 204.374 46.1765 208.654 43.305C212.934 40.4336 217.97 38.8959 223.125 38.8865C228.279 38.8771 233.32 40.3964 237.611 43.2522C241.902 46.108 245.25 50.172 247.231 54.9304C249.212 59.6889 249.738 64.9279 248.742 69.985C247.979 73.8579 246.349 77.4908 243.994 80.6199C242.797 82.2109 240.49 82.2024 239.08 80.7969C237.669 79.3915 237.7 77.123 238.811 75.4709C240.205 73.4003 241.18 71.0633 241.667 68.5912C242.387 64.9333 242.007 61.1439 240.574 57.7021C239.141 54.2603 236.72 51.3207 233.616 49.2551C230.512 47.1895 226.866 46.0906 223.138 46.0974C219.41 46.1042 215.767 47.2164 212.671 49.2933C209.575 51.3702 207.164 54.3186 205.744 57.7656C204.323 61.2126 203.957 65.0034 204.691 68.6587C205.187 71.129 206.171 73.4624 207.572 75.528C208.689 77.1759 208.728 79.4443 207.323 80.8549Z" fill="#0093E0"/>
<path d="M325 65C325 79.3594 313.136 91 298.5 91C283.864 91 272 79.3594 272 65C272 50.6406 283.864 39 298.5 39C313.136 39 325 50.6406 325 65ZM279.332 65C279.332 75.3863 287.914 83.806 298.5 83.806C309.086 83.806 317.668 75.3863 317.668 65C317.668 54.6137 309.086 46.194 298.5 46.194C287.914 46.194 279.332 54.6137 279.332 65Z" fill="#0093E0"/>
</svg>
