<svg width="37" height="38" viewBox="0 0 37 38" fill="none" xmlns="http://www.w3.org/2000/svg">
<path d="M29.0464 36.0464C29.3165 36.3165 29.319 36.759 29.0142 36.9893C28.4147 37.4423 27.7182 37.7561 26.9755 37.9039C26.0055 38.0968 25.0002 37.9978 24.0866 37.6194C23.173 37.2409 22.3921 36.6001 21.8427 35.7778C21.2932 34.9556 21 33.9889 21 33C21 32.0111 21.2932 31.0444 21.8427 30.2221C22.3921 29.3999 23.173 28.759 24.0866 28.3806C25.0002 28.0021 26.0055 27.9031 26.9755 28.096C27.7182 28.2438 28.4147 28.5577 29.0142 29.0106C29.319 29.2409 29.3165 29.6834 29.0464 29.9536C28.7763 30.2237 28.3411 30.217 28.0245 30.0032C27.6277 29.7351 27.1797 29.5472 26.7056 29.4529C26.004 29.3134 25.2768 29.385 24.616 29.6587C23.9552 29.9324 23.3903 30.396 22.993 30.9907C22.5956 31.5855 22.3835 32.2847 22.3835 33C22.3835 33.7152 22.5956 34.4145 22.993 35.0092C23.3903 35.6039 23.9552 36.0675 24.616 36.3412C25.2768 36.6149 26.004 36.6866 26.7056 36.547C27.1797 36.4527 27.6277 36.2648 28.0245 35.9968C28.3411 35.7829 28.7763 35.7762 29.0464 36.0464Z" fill="#0093E0"/>
<path d="M7.17216 33.1721C7.01007 33.01 7.00861 32.7445 7.1915 32.6063C7.55121 32.3345 7.96907 32.1462 8.41473 32.0576C8.99667 31.9418 9.59987 32.0012 10.1481 32.2283C10.6962 32.4554 11.1648 32.8399 11.4944 33.3332C11.8241 33.8266 12 34.4066 12 34.9999C12 35.5933 11.8241 36.1733 11.4944 36.6666C11.1648 37.16 10.6962 37.5445 10.1481 37.7716C9.59987 37.9986 8.99667 38.058 8.41473 37.9423C7.96907 37.8536 7.55121 37.6653 7.1915 37.3935C7.00861 37.2554 7.01007 36.9899 7.17216 36.8278C7.33424 36.6657 7.59537 36.6697 7.78531 36.798C8.02338 36.9588 8.29219 37.0716 8.57667 37.1282C8.99759 37.2119 9.43389 37.1689 9.83039 37.0047C10.2269 36.8404 10.5658 36.5623 10.8042 36.2055C11.0427 35.8486 11.1699 35.4291 11.1699 34.9999C11.1699 34.5708 11.0427 34.1512 10.8042 33.7944C10.5658 33.4375 10.2269 33.1594 9.83039 32.9952C9.43389 32.8309 8.99759 32.788 8.57667 32.8717C8.29219 32.9283 8.02338 33.041 7.78531 33.2018C7.59537 33.3302 7.33424 33.3342 7.17216 33.1721Z" fill="#0093E0"/>
<path d="M8.99506 34.1955C9.28391 34.4555 9.28487 34.9118 8.96074 35.1262C8.37343 35.5146 7.69626 35.7845 6.97545 35.9135C6.00555 36.0871 5.00021 35.998 4.08658 35.6574C3.17295 35.3168 2.39206 34.74 1.84265 34C1.29324 33.26 1 32.39 1 31.5C1 30.6099 1.29324 29.7399 1.84265 28.9999C2.39206 28.2599 3.17295 27.6831 4.08658 27.3425C5.00021 27.0019 6.00555 26.9128 6.97545 27.0864C7.69625 27.2155 8.37343 27.4853 8.96074 27.8737C9.28487 28.0881 9.28391 28.5444 8.99506 28.8044C8.74618 29.0284 8.37109 29.0226 8.08865 28.8428C7.67628 28.5802 7.20542 28.3971 6.70555 28.3076C6.00401 28.182 5.27685 28.2465 4.61601 28.4928C3.95517 28.7392 3.39035 29.1564 2.99296 29.6916C2.59557 30.2269 2.38346 30.8562 2.38346 31.5C2.38346 32.1437 2.59557 32.773 2.99296 33.3083C3.39035 33.8435 3.95517 34.2607 4.61601 34.5071C5.27685 34.7534 6.00401 34.8179 6.70555 34.6923C7.20542 34.6028 7.67628 34.4197 8.08865 34.1572C8.37109 33.9773 8.74618 33.9715 8.99506 34.1955Z" fill="#0093E0"/>
<path d="M19.9951 32.1955C20.2839 32.4555 20.2849 32.9118 19.9607 33.1262C19.1481 33.6637 18.1683 33.9707 17.1485 33.998C16.1254 34.0253 15.1241 33.7695 14.2756 33.2733C13.9424 33.0784 13.9167 32.626 14.1877 32.3512C14.4215 32.1141 14.7943 32.0977 15.0845 32.2608C15.6862 32.599 16.3894 32.7726 17.1074 32.7534C17.8231 32.7343 18.5115 32.5247 19.0887 32.1572C19.3711 31.9773 19.7462 31.9715 19.9951 32.1955Z" fill="#0093E0"/>
<path d="M14.2735 36.0139C14.0158 36.2725 13.593 36.2756 13.3724 35.9847C12.9384 35.4126 12.6372 34.7476 12.4948 34.038C12.3087 33.1114 12.4016 32.1505 12.7616 31.2767C13.1217 30.4029 13.7328 29.6555 14.5176 29.129C15.3025 28.6025 16.2258 28.3206 17.1709 28.3189C18.1159 28.3171 19.0403 28.5957 19.827 29.1193C20.6138 29.6429 21.2276 30.3881 21.5909 31.2606C21.9541 32.133 22.0505 33.0936 21.8678 34.0209C21.7279 34.731 21.4292 35.3971 20.9973 35.9708C20.7778 36.2625 20.3549 36.2609 20.0963 36.0033C19.8376 35.7456 19.8433 35.3296 20.0471 35.0267C20.3025 34.6471 20.4813 34.2186 20.5706 33.7653C20.7028 33.0946 20.633 32.3998 20.3703 31.7687C20.1076 31.1377 19.6636 30.5987 19.0945 30.22C18.5255 29.8412 17.8569 29.6397 17.1733 29.641C16.4897 29.6422 15.8219 29.8462 15.2542 30.227C14.6865 30.6078 14.2445 31.1484 13.984 31.7804C13.7236 32.4124 13.6564 33.1075 13.791 33.7777C13.882 34.2306 14.0623 34.6585 14.3192 35.0372C14.5241 35.3393 14.5312 35.7553 14.2735 36.0139Z" fill="#0093E0"/>
<path d="M36 33C36 35.7614 33.7614 38 31 38C28.2386 38 26 35.7614 26 33C26 30.2385 28.2386 28 31 28C33.7614 28 36 30.2385 36 33ZM27.3835 33C27.3835 34.9973 29.0026 36.6165 31 36.6165C32.9974 36.6165 34.6165 34.9973 34.6165 33C34.6165 31.0026 32.9974 29.3834 31 29.3834C29.0026 29.3834 27.3835 31.0026 27.3835 33Z" fill="#0093E0"/>
<path d="M29.0464 36.0464C29.3165 36.3165 29.319 36.759 29.0142 36.9893C28.4147 37.4423 27.7182 37.7561 26.9755 37.9039C26.0055 38.0968 25.0002 37.9978 24.0866 37.6194C23.173 37.2409 22.3921 36.6001 21.8427 35.7778C21.2932 34.9556 21 33.9889 21 33C21 32.0111 21.2932 31.0444 21.8427 30.2221C22.3921 29.3999 23.173 28.759 24.0866 28.3806C25.0002 28.0021 26.0055 27.9031 26.9755 28.096C27.7182 28.2438 28.4147 28.5577 29.0142 29.0106C29.319 29.2409 29.3165 29.6834 29.0464 29.9536C28.7763 30.2237 28.3411 30.217 28.0245 30.0032C27.6277 29.7351 27.1797 29.5472 26.7056 29.4529C26.004 29.3134 25.2768 29.385 24.616 29.6587C23.9552 29.9324 23.3903 30.396 22.993 30.9907C22.5956 31.5855 22.3835 32.2847 22.3835 33C22.3835 33.7152 22.5956 34.4145 22.993 35.0092C23.3903 35.6039 23.9552 36.0675 24.616 36.3412C25.2768 36.6149 26.004 36.6866 26.7056 36.547C27.1797 36.4527 27.6277 36.2648 28.0245 35.9968C28.3411 35.7829 28.7763 35.7762 29.0464 36.0464Z" fill="#0093E0"/>
<path d="M7.17216 33.1721C7.01007 33.01 7.00861 32.7445 7.1915 32.6063C7.55121 32.3345 7.96907 32.1462 8.41473 32.0576C8.99667 31.9418 9.59987 32.0012 10.1481 32.2283C10.6962 32.4554 11.1648 32.8399 11.4944 33.3332C11.8241 33.8266 12 34.4066 12 34.9999C12 35.5933 11.8241 36.1733 11.4944 36.6666C11.1648 37.16 10.6962 37.5445 10.1481 37.7716C9.59987 37.9986 8.99667 38.058 8.41473 37.9423C7.96907 37.8536 7.55121 37.6653 7.1915 37.3935C7.00861 37.2554 7.01007 36.9899 7.17216 36.8278C7.33424 36.6657 7.59537 36.6697 7.78531 36.798C8.02338 36.9588 8.29219 37.0716 8.57667 37.1282C8.99759 37.2119 9.43389 37.1689 9.83039 37.0047C10.2269 36.8404 10.5658 36.5623 10.8042 36.2055C11.0427 35.8486 11.1699 35.4291 11.1699 34.9999C11.1699 34.5708 11.0427 34.1512 10.8042 33.7944C10.5658 33.4375 10.2269 33.1594 9.83039 32.9952C9.43389 32.8309 8.99759 32.788 8.57667 32.8717C8.29219 32.9283 8.02338 33.041 7.78531 33.2018C7.59537 33.3302 7.33424 33.3342 7.17216 33.1721Z" fill="#0093E0"/>
<path d="M8.99506 34.1955C9.28391 34.4555 9.28487 34.9118 8.96074 35.1262C8.37343 35.5146 7.69626 35.7845 6.97545 35.9135C6.00555 36.0871 5.00021 35.998 4.08658 35.6574C3.17295 35.3168 2.39206 34.74 1.84265 34C1.29324 33.26 1 32.39 1 31.5C1 30.6099 1.29324 29.7399 1.84265 28.9999C2.39206 28.2599 3.17295 27.6831 4.08658 27.3425C5.00021 27.0019 6.00555 26.9128 6.97545 27.0864C7.69625 27.2155 8.37343 27.4853 8.96074 27.8737C9.28487 28.0881 9.28391 28.5444 8.99506 28.8044C8.74618 29.0284 8.37109 29.0226 8.08865 28.8428C7.67628 28.5802 7.20542 28.3971 6.70555 28.3076C6.00401 28.182 5.27685 28.2465 4.61601 28.4928C3.95517 28.7392 3.39035 29.1564 2.99296 29.6916C2.59557 30.2269 2.38346 30.8562 2.38346 31.5C2.38346 32.1437 2.59557 32.773 2.99296 33.3083C3.39035 33.8435 3.95517 34.2607 4.61601 34.5071C5.27685 34.7534 6.00401 34.8179 6.70555 34.6923C7.20542 34.6028 7.67628 34.4197 8.08865 34.1572C8.37109 33.9773 8.74618 33.9715 8.99506 34.1955Z" fill="#0093E0"/>
<path d="M19.9951 32.1955C20.2839 32.4555 20.2849 32.9118 19.9607 33.1262C19.1481 33.6637 18.1683 33.9707 17.1485 33.998C16.1254 34.0253 15.1241 33.7695 14.2756 33.2733C13.9424 33.0784 13.9167 32.626 14.1877 32.3512C14.4215 32.1141 14.7943 32.0977 15.0845 32.2608C15.6862 32.599 16.3894 32.7726 17.1074 32.7534C17.8231 32.7343 18.5115 32.5247 19.0887 32.1572C19.3711 31.9773 19.7462 31.9715 19.9951 32.1955Z" fill="#0093E0"/>
<path d="M14.2735 36.0139C14.0158 36.2725 13.593 36.2756 13.3724 35.9847C12.9384 35.4126 12.6372 34.7476 12.4948 34.038C12.3087 33.1114 12.4016 32.1505 12.7616 31.2767C13.1217 30.4029 13.7328 29.6555 14.5176 29.129C15.3025 28.6025 16.2258 28.3206 17.1709 28.3189C18.1159 28.3171 19.0403 28.5957 19.827 29.1193C20.6138 29.6429 21.2276 30.3881 21.5909 31.2606C21.9541 32.133 22.0505 33.0936 21.8678 34.0209C21.7279 34.731 21.4292 35.3971 20.9973 35.9708C20.7778 36.2625 20.3549 36.2609 20.0963 36.0033C19.8376 35.7456 19.8433 35.3296 20.0471 35.0267C20.3025 34.6471 20.4813 34.2186 20.5706 33.7653C20.7028 33.0946 20.633 32.3998 20.3703 31.7687C20.1076 31.1377 19.6636 30.5987 19.0945 30.22C18.5255 29.8412 17.8569 29.6397 17.1733 29.641C16.4897 29.6422 15.8219 29.8462 15.2542 30.227C14.6865 30.6078 14.2445 31.1484 13.984 31.7804C13.7236 32.4124 13.6564 33.1075 13.791 33.7777C13.882 34.2306 14.0623 34.6585 14.3192 35.0372C14.5241 35.3393 14.5312 35.7553 14.2735 36.0139Z" fill="#0093E0"/>
<path d="M36 33C36 35.7614 33.7614 38 31 38C28.2386 38 26 35.7614 26 33C26 30.2385 28.2386 28 31 28C33.7614 28 36 30.2385 36 33ZM27.3835 33C27.3835 34.9973 29.0026 36.6165 31 36.6165C32.9974 36.6165 34.6165 34.9973 34.6165 33C34.6165 31.0026 32.9974 29.3834 31 29.3834C29.0026 29.3834 27.3835 31.0026 27.3835 33Z" fill="#0093E0"/>
<path d="M12.1869 10.7952C10.7737 8.9271 7.69413 2.89439 8.85864 2.01341C10.0232 1.13243 14.9908 5.7368 16.404 7.60488C17.8172 9.47295 18.0189 11.7015 16.8543 12.5825C15.6898 13.4635 13.6002 12.6633 12.1869 10.7952Z" fill="#63ACE0"/>
<path d="M21.4136 7.92761C22.5274 5.86692 26.7397 0.562845 28.0243 1.25715C29.3089 1.95145 27.1793 8.38122 26.0655 10.4419C24.9517 12.5026 23.0075 13.6103 21.7229 12.916C20.4383 12.2217 20.2998 9.9883 21.4136 7.92761Z" fill="#63ACE0"/>
<path d="M37 23.3098C37 28.7909 28.0749 24.1993 18.5848 24.1993C9.09478 24.1993 0 28.7909 0 23.3098C0 17.8287 9.09478 6.99996 18.5848 6.99996C28.0749 6.99996 37 17.8287 37 23.3098Z" fill="#63ACE0"/>
<path d="M10.2589 19.0449C9.22258 21.1045 7.99178 24.3335 5.81614 23.2388C3.64049 22.1442 4.04697 18.6273 5.08326 16.5677C6.11955 14.508 8.79862 11.8924 10.9743 12.9871C13.1499 14.0818 11.2952 16.9853 10.2589 19.0449Z" fill="#E0D163"/>
<path d="M26.0729 19.0546C25.0366 16.995 23.1772 14.0824 25.3528 12.9877C27.5285 11.8929 30.1103 14.3153 31.1467 16.3749C32.183 18.4345 32.6867 22.1446 30.5111 23.2393C28.3355 24.334 27.1092 21.1142 26.0729 19.0546Z" fill="#E0D163"/>
<path d="M27.2026 18.487C26.6215 17.3322 25.579 15.6992 26.7988 15.0854C28.0186 14.4717 29.4662 15.8298 30.0472 16.9845C30.6282 18.1393 30.9107 20.2194 29.6909 20.8332C28.4711 21.4469 27.7836 19.6417 27.2026 18.487Z" fill="#E06563"/>
<path d="M9.1443 18.4818C8.56327 19.6366 7.87318 21.4469 6.65338 20.8331C5.43358 20.2194 5.66151 18.2476 6.24253 17.0929C6.82356 15.9381 8.32564 14.4717 9.54544 15.0854C10.7652 15.6992 9.72533 17.3271 9.1443 18.4818Z" fill="#E06563"/>
<path d="M29.5573 17.2668C29.885 17.8379 30.0367 18.8455 29.4335 19.1916C28.8303 19.5378 28.0562 18.8874 27.7285 18.3163C27.4008 17.7452 27.199 16.6952 27.8022 16.349C28.4054 16.0029 29.2295 16.6957 29.5573 17.2668Z" fill="#63D4E0"/>
<path d="M8.64187 18.2657C8.34591 18.8539 7.58874 19.5357 6.96749 19.2231C6.34625 18.9105 6.46239 17.9061 6.75834 17.3179C7.0543 16.7298 7.81937 15.9828 8.44062 16.2954C9.06186 16.608 8.93783 17.6775 8.64187 18.2657Z" fill="#63D4E0"/>
</svg>
