<svg width="66" height="26" viewBox="0 0 66 26" fill="none" xmlns="http://www.w3.org/2000/svg">
<path d="M52.8876 21.7732C53.397 22.2826 53.4016 23.117 52.8268 23.5513C51.6963 24.4055 50.383 24.9974 48.9824 25.276C47.1534 25.6398 45.2576 25.4531 43.5348 24.7394C41.8119 24.0258 40.3394 22.8173 39.3034 21.2668C38.2673 19.7163 37.7144 17.8934 37.7144 16.0286C37.7144 14.1638 38.2673 12.3409 39.3034 10.7903C40.3394 9.23982 41.8119 8.03134 43.5348 7.31771C45.2576 6.60409 47.1534 6.41737 48.9823 6.78117C50.383 7.05978 51.6963 7.65166 52.8268 8.50583C53.4016 8.94011 53.397 9.77452 52.8876 10.2839C52.3782 10.7933 51.5575 10.7807 50.9605 10.3775C50.2123 9.87202 49.3675 9.5177 48.4734 9.33986C47.1505 9.07671 45.7793 9.21177 44.5331 9.72794C43.287 10.2441 42.2219 11.1182 41.4725 12.2397C40.7231 13.3612 40.3232 14.6798 40.3232 16.0286C40.3232 17.3774 40.7231 18.6959 41.4725 19.8174C42.2219 20.9389 43.287 21.813 44.5331 22.3292C45.7793 22.8454 47.1505 22.9804 48.4734 22.7173C49.3675 22.5395 50.2123 22.1851 50.9605 21.6797C51.5575 21.2764 52.3782 21.2638 52.8876 21.7732Z" fill="white"/>
<path d="M11.7786 14.7881C11.4656 14.451 11.4616 13.9236 11.8156 13.6298C12.5609 13.0111 13.4315 12.5832 14.3614 12.384C15.5502 12.1293 16.7824 12.26 17.9023 12.7595C19.0221 13.2591 19.9793 14.105 20.6527 15.1904C21.3261 16.2758 21.6855 17.5518 21.6855 18.8572C21.6855 20.1625 21.3261 21.4386 20.6527 22.5239C19.9793 23.6093 19.0221 24.4552 17.9023 24.9548C16.7824 25.4543 15.5502 25.585 14.3614 25.3303C13.4315 25.1312 12.5609 24.7032 11.8156 24.0845C11.4616 23.7907 11.4656 23.2633 11.7786 22.9262C12.1262 22.5518 12.7157 22.5606 13.1336 22.8545C13.6054 23.1862 14.134 23.4197 14.6922 23.5393C15.5521 23.7235 16.4434 23.6289 17.2534 23.2676C18.0633 22.9063 18.7557 22.2944 19.2428 21.5094C19.7298 20.7243 19.9898 19.8013 19.9898 18.8572C19.9898 17.913 19.7298 16.99 19.2428 16.205C18.7557 15.4199 18.0633 14.808 17.2534 14.4467C16.4434 14.0854 15.5521 13.9908 14.6922 14.175C14.134 14.2946 13.6054 14.5281 13.1336 14.8599C12.7157 15.1537 12.1262 15.1625 11.7786 14.7881Z" fill="white"/>
<path d="M14.4595 18.0491C14.9253 18.5395 14.9307 19.3174 14.4042 19.742C13.3196 20.6165 12.0548 21.2218 10.7046 21.5046C8.96708 21.8684 7.1661 21.6816 5.52939 20.968C3.89269 20.2544 2.49377 19.0459 1.50955 17.4954C0.525327 15.9449 1.09108e-07 14.122 0 12.2572C-1.09108e-07 10.3924 0.525327 8.56944 1.50955 7.01892C2.49377 5.4684 3.89269 4.25992 5.52939 3.54629C7.1661 2.83266 8.96708 2.64595 10.7046 3.00975C12.0548 3.29246 13.3196 3.89776 14.4042 4.77235C14.9307 5.19694 14.9253 5.97485 14.4595 6.46523C13.9586 6.99251 13.1228 6.97989 12.5255 6.565C11.8292 6.08139 11.0473 5.74142 10.2211 5.56843C8.96433 5.30529 7.66166 5.44034 6.47782 5.95652C5.29398 6.47269 4.28214 7.34679 3.57024 8.4683C2.85834 9.5898 2.47837 10.9083 2.47837 12.2572C2.47837 13.606 2.85834 14.9245 3.57024 16.046C4.28214 17.1675 5.29398 18.0416 6.47782 18.5578C7.66166 19.074 8.96433 19.209 10.2211 18.9459C11.0473 18.7729 11.8292 18.4329 12.5255 17.9493C13.1228 17.5344 13.9586 17.5218 14.4595 18.0491Z" fill="white"/>
<path d="M35.8686 14.3697C36.3959 14.8706 36.3992 15.7188 35.8057 16.139C34.2632 17.2312 32.3959 17.8554 30.4513 17.9103C28.5038 17.9653 26.598 17.4458 24.9885 16.4397C24.3738 16.0554 24.327 15.2115 24.8219 14.6818C25.2824 14.189 26.0439 14.1554 26.6279 14.4928C27.7472 15.1394 29.0472 15.4705 30.3738 15.4331C31.6982 15.3957 32.973 14.9932 34.0487 14.2869C34.6141 13.9156 35.3782 13.9038 35.8686 14.3697Z" fill="white"/>
<path d="M24.4666 21.4782C23.9705 21.976 23.1566 21.982 22.7319 21.422C21.8966 20.3207 21.3168 19.0406 21.0426 17.6747C20.6844 15.8911 20.8632 14.0414 21.5563 12.3594C22.2494 10.6774 23.4257 9.23874 24.9364 8.22529C26.4472 7.21185 28.2245 6.66915 30.0437 6.66583C31.8629 6.66251 33.6422 7.19872 35.1567 8.20664C36.6711 9.21457 37.8527 10.6489 38.5519 12.3284C39.2511 14.0078 39.4367 15.8569 39.085 17.6418C38.8157 19.0087 38.2407 20.2909 37.4094 21.3953C36.9868 21.9568 36.1727 21.9538 35.6749 21.4577C35.177 20.9617 35.1879 20.161 35.5802 19.578C36.072 18.8472 36.4161 18.0223 36.588 17.1498C36.8424 15.8588 36.7082 14.5214 36.2024 13.3066C35.6966 12.0919 34.842 11.0544 33.7466 10.3253C32.6512 9.59628 31.3642 9.20843 30.0484 9.21084C28.7325 9.21324 27.447 9.60577 26.3542 10.3388C25.2615 11.0718 24.4107 12.1124 23.9093 13.329C23.408 14.5456 23.2787 15.8836 23.5377 17.1736C23.7128 18.0455 24.06 18.8691 24.5544 19.5981C24.9489 20.1797 24.9626 20.9803 24.4666 21.4782Z" fill="white"/>
<path d="M66.0002 16.0286C66.0002 21.2358 61.7789 25.4571 56.5716 25.4571C51.3644 25.4571 47.1431 21.2358 47.1431 16.0286C47.1431 10.8213 51.3644 6.60001 56.5716 6.60001C61.7789 6.60001 66.0002 10.8213 66.0002 16.0286ZM49.7519 16.0286C49.7519 19.795 52.8052 22.8483 56.5716 22.8483C60.3381 22.8483 63.3914 19.795 63.3914 16.0286C63.3914 12.2621 60.3381 9.20882 56.5716 9.20882C52.8052 9.20882 49.7519 12.2621 49.7519 16.0286Z" fill="white"/>
</svg>
